# Blender v2.79 (sub 0) OBJ File: 'room.blend'
# www.blender.org
mtllib room.mtl
o Plane
v -3.000000 0.000000 3.000000
v 3.000000 0.000000 3.000000
v -3.000000 0.000000 -3.000000
v 3.000000 0.000000 -3.000000
v -3.000000 2.500000 3.000000
v 3.000000 2.500000 3.000000
v -3.000000 2.500000 -3.000000
v 3.000000 2.500000 -3.000000
v -2.212479 0.000000 -3.167809
v -2.212479 0.000000 -3.000000
v -2.212479 1.879882 -3.167809
v -2.212479 2.500000 -3.000000
v -1.205215 0.000000 -3.000000
v -1.205215 2.500000 -3.000000
v -1.205215 1.879882 -3.167809
v -2.212479 1.879882 -3.000000
v -1.205215 1.879882 -3.000000
v -0.104425 0.000000 -3.000000
v -0.104425 2.500000 -3.000000
v -0.104425 1.879882 -3.000000
v 2.052049 0.000000 -3.000000
v 2.052049 2.500000 -3.000000
v 2.052049 1.879882 -3.000000
v -1.205215 0.000000 -3.167809
v -0.104425 0.909262 -3.000000
v 2.052049 0.909262 -3.000000
vt 0.999791 0.337519
vt 0.666839 0.337519
vt 0.833366 0.003113
vt 0.333106 0.416331
vt 0.280511 0.313113
vt 0.280511 0.151554
vt 0.666421 0.416331
vt 0.333524 0.000209
vt 0.666421 0.000209
vt 0.732870 0.337937
vt 0.742181 0.650842
vt 0.732870 0.650842
vt 0.000209 0.416331
vt 0.000209 0.000209
vt 0.043903 0.313113
vt 0.099789 0.313113
vt 0.043903 0.416331
vt 0.666421 0.416748
vt 0.333524 0.832870
vt 0.333524 0.416748
vt 0.333106 0.416748
vt 0.000209 0.832870
vt 0.000209 0.416748
vt 0.160864 0.313113
vt 0.160864 0.416331
vt 0.722725 0.337937
vt 0.666839 0.650841
vt 0.666839 0.337937
vt 0.280511 0.000209
vt 0.160864 0.151554
vt 0.160864 0.000209
vt 0.666839 0.660569
vt 0.722725 0.651258
vt 0.722725 0.660569
vt 0.732453 0.650842
vt 0.723142 0.337937
vt 0.732453 0.337937
vt 0.833315 0.003115
vt 0.833315 0.003115
vt 0.833315 0.003114
vt 0.833315 0.003114
vt 0.999791 0.004567
vt 0.666839 0.004567
vt 0.833266 0.000209
vt 0.333106 0.000209
vt 0.280511 0.416331
vt 0.333524 0.416331
vt 0.742181 0.337937
vt 0.043903 0.000209
vt 0.099789 0.416331
vt 0.666421 0.832870
vt 0.333106 0.832870
vt 0.099789 0.000209
vt 0.722725 0.650841
vt 0.666839 0.651258
vt 0.723142 0.650842
vn 0.0000 1.0000 0.0000
vn -0.0000 0.0000 1.0000
vn 0.0000 0.0000 -1.0000
vn 1.0000 0.0000 0.0000
vn -1.0000 0.0000 0.0000
vn 0.0000 -1.0000 0.0000
usemtl Material.001
s off
f 1/1/1 2/2/1 18/3/1
f 8/4/2 23/5/2 26/6/2
f 5/7/3 2/8/3 1/9/3
f 10/10/4 11/11/4 16/12/4
f 7/13/2 3/14/2 16/15/2
f 17/16/2 12/17/2 16/15/2
f 3/18/4 5/19/4 1/20/4
f 2/21/5 8/22/5 4/23/5
f 20/24/2 19/25/2 17/16/2
f 24/26/2 11/27/2 9/28/2
f 23/5/2 19/25/2 20/24/2
f 21/29/2 25/30/2 18/31/2
f 16/32/6 15/33/6 17/34/6
f 17/35/5 24/36/5 13/37/5
f 13/38/1 24/39/1 9/40/1
f 10/41/1 3/42/1 1/1/1
f 13/38/1 9/40/1 10/41/1
f 4/43/1 21/44/1 2/2/1
f 13/38/1 10/41/1 1/1/1
f 2/2/1 21/44/1 18/3/1
f 18/3/1 13/38/1 1/1/1
f 21/29/2 4/45/2 26/6/2
f 8/4/2 22/46/2 23/5/2
f 26/6/2 4/45/2 8/4/2
f 5/7/3 6/47/3 2/8/3
f 10/10/4 9/48/4 11/11/4
f 10/49/2 16/15/2 3/14/2
f 12/17/2 7/13/2 16/15/2
f 17/16/2 14/50/2 12/17/2
f 3/18/4 7/51/4 5/19/4
f 2/21/5 6/52/5 8/22/5
f 17/16/2 13/53/2 25/30/2
f 25/30/2 20/24/2 17/16/2
f 13/53/2 18/31/2 25/30/2
f 19/25/2 14/50/2 17/16/2
f 24/26/2 15/54/2 11/27/2
f 23/5/2 22/46/2 19/25/2
f 21/29/2 26/6/2 25/30/2
f 16/32/6 11/55/6 15/33/6
f 17/35/5 15/56/5 24/36/5
