# Blender v2.79 (sub 0) OBJ File: 'room2.blend'
# www.blender.org
mtllib beam.mtl
o Beam_1_Plane.003
v 3.000000 0.125000 0.125000
v 3.000000 -0.125000 0.125000
v 3.000000 0.125000 -0.125000
v 3.000000 -0.125000 -0.125000
v -3.010225 0.125000 -0.125000
v -3.010225 0.125000 0.125000
v -3.010225 -0.125000 0.125000
v -3.010225 -0.125000 -0.125000
vt 0.833357 0.333225
vt 0.667039 0.166907
vt 0.667039 0.333225
vt 0.667039 0.166514
vt 0.833357 0.000196
vt 0.667039 0.000196
vt 0.499936 0.000196
vt 0.333618 0.999804
vt 0.499936 0.999804
vt 0.333225 0.000196
vt 0.166907 0.999803
vt 0.333225 0.999803
vt 0.666646 0.000196
vt 0.500328 0.999804
vt 0.666646 0.999804
vt 0.166514 0.000196
vt 0.000196 0.999804
vt 0.166514 0.999804
vt 0.833357 0.166907
vt 0.833357 0.166514
vt 0.333618 0.000196
vt 0.166907 0.000196
vt 0.500328 0.000196
vt 0.000196 0.000196
vn 1.0000 0.0000 0.0000
vn -1.0000 0.0000 0.0000
vn 0.0000 0.0000 -1.0000
vn -0.0000 0.0000 1.0000
vn -0.0000 -1.0000 0.0000
vn 0.0000 1.0000 0.0000
usemtl beam
s off
f 2/1/1 3/2/1 1/3/1
f 5/4/2 7/5/2 6/6/2
f 8/7/3 3/8/3 4/9/3
f 6/10/4 2/11/4 1/12/4
f 7/13/5 4/14/5 2/15/5
f 5/16/6 1/17/6 3/18/6
f 2/1/1 4/19/1 3/2/1
f 5/4/2 8/20/2 7/5/2
f 8/7/3 5/21/3 3/8/3
f 6/10/4 7/22/4 2/11/4
f 7/13/5 8/23/5 4/14/5
f 5/16/6 6/24/6 1/17/6
